<svg
  width="512"
  height="80"
  viewBox="0 0 3516.7375 480.46283"
  xmlns="http://www.w3.org/2000/svg"
>
  <path
    style="fill:#ffffff;stroke:none"
    d="m 179.44666,1.3176169 c -27.994,3.6755 -53.707,9.0106001 -79,22.3565001 -19.519002,10.2991 -38.044002,24.440202 -52.421002,41.219102 -12.549,14.647 -23.222701,30.423989 -31.270401,47.999991 -40.2296,87.86 -2.3236,180.839 53.481401,252 26.026,33.188 55.288002,63.463 87.210002,91 7.452,6.429 24.346,25.868 35,24.501 9.619,-1.235 20.922,-14.173 28,-20.23 23.8,-20.369 46.303,-41.907 67.166,-65.271 48.097,-53.864 90.682,-119.069 95.744,-193 7.343,-107.225002 -93.381,-215.087943 -203.91,-200.5755931 m 0,47.8611021 c 16.088,-1.9044 33.4,0.3469 49,4.3441 16.15,4.1383 31.238,11.3611 45,20.7145 80.042,54.400891 81.672,175.799891 5,233.757891 -22.16,16.751 -47.661,25.376 -75,28.613 -16.726,1.979 -34.903,-0.385 -51,-5.006 -20.954,-6.014 -40.712,-16.22 -57.000002,-30.88 -66.259201,-59.634 -62.907,-169.087 9.000002,-222.933891 22.246,-16.6589 47.608,-25.3672 75,-28.6096 m 10,56.283491 c -8.533,1.541 -17.09,7.555 -25,11.007 -19.79,8.635 -39.596,17.708 -59,27.179 -6.659002,3.251 -23.485002,7.239 -25.384002,15.26 -2.431,10.264 15.634,14.58 22.384002,17.766 21.246,10.029 42.649,19.725 64,29.528 7.363,3.38 18.647,11.629 27,10.122 11.27,-2.035 23.713,-10.196 34,-15.173 16.845,-8.149 34.202,-15.249 51,-23.502 6.746,-3.315 23.323,-6.984 24.501,-15.77 1.308,-9.762 -16.795,-14.224 -23.501,-17.295 l -63,-29 c -7.415,-3.404 -18.546,-11.647 -27,-10.122 m 113,78.431 c -4.017,1.903 -11.387,3.726 -13.972,7.498 -4.015,5.859 -2.922,30.648 5.015,32.806 4.581,1.246 8.537,-1.986 9.563,-6.319 1.926,-8.134 2.606,-26.331 -0.606,-33.985 m -191,15 c 0,12.668 -4.69,37.303 2.653,48 25.274,36.818 83.838,41.269 121.347,24.846 12.064,-5.282 27.082,-14.238 33.991,-25.846 6.511,-10.94 2.009,-34.454 2.009,-47 l -54,24.258 -26,9.663 -26,-9.663 z"
    id="path528"/>
  <text
    xml:space="preserve"
    id="text1677"
    style="font-style:normal;font-variant:normal;font-weight:bold;font-stretch:normal;font-size:427px;font-family:CommitMono,serif;-inkscape-font-specification:'CommitMono Bold';text-align:start;white-space:pre;shape-inside:url(#rect1679);fill:#ffffff"
    transform="translate(10.897424,-51.735113)"><tspan
       x="389.46484"
       y="438.3308"
       id="tspan1726"><tspan
         dx="0 0 0 0 0 0 0 0 0 0 0 0.00012207031 -0.00010681152"
         style="font-family:C059,serif;"
         id="tspan1724">School Finder</tspan></tspan></text>
</svg>
